<svg xmlns="http://www.w3.org/2000/svg" xmlns:xlink="http://www.w3.org/1999/xlink" width="132.49" height="20.426" viewBox="0 0 132.49 20.426">
  <defs>
    <clipPath id="clip-path">
      <rect id="Rectangle_18180" data-name="Rectangle 18180" width="132.49" height="20.426" fill="none"/>
    </clipPath>
  </defs>
  <g id="Group_8826" data-name="Group 8826" transform="translate(-118 -47.574)">
    <g id="Group_8825" data-name="Group 8825" transform="translate(118 47.574)">
      <g id="Group_8824" data-name="Group 8824" transform="translate(0 0)" clip-path="url(#clip-path)">
        <path id="Path_17185" data-name="Path 17185" d="M272.415,21.921H267.6V2.363h7.1c4.89,0,7.413,3,7.413,6.7s-2.523,6.861-7.413,6.861h-2.287Zm0-15.378v5.2h1.341c1.971,0,3.391-.71,3.391-2.681s-1.419-2.524-3.391-2.524h-1.341" transform="translate(-205.066 -1.811)" fill="#003681"/>
        <path id="Path_17186" data-name="Path 17186" d="M329.7,35.545a7.021,7.021,0,1,1,7.019,6.861,6.8,6.8,0,0,1-7.019-6.861m4.5,0a2.541,2.541,0,1,0,5.047,0,2.534,2.534,0,1,0-5.047,0" transform="translate(-252.647 -21.981)" fill="#003681"/>
        <path id="Path_17187" data-name="Path 17187" d="M403.343,33.819h-1.656c-1.971,0-2.445,1.656-2.445,3.312v5.994h-4.416V30.113h4.337v2.05c.236-1.5,1.183-2.129,2.05-2.129.315,0,2.129.079,2.129.079Z" transform="translate(-302.556 -23.015)" fill="#003681"/>
        <path id="Path_17188" data-name="Path 17188" d="M443.4,10.461v4.653H446v3.707h-2.6v4.732c0,.789.631.867,1.183.867A11.105,11.105,0,0,0,446,24.341v3.864s-2.129.158-3.233.158c-2.129,0-3.864-.552-3.864-3.312v-6.23h-1.893V15.114H438.9V10.461Z" transform="translate(-334.881 -8.016)" fill="#003681"/>
        <path id="Path_17189" data-name="Path 17189" d="M479.528,35.545a7.021,7.021,0,1,1,7.019,6.861,6.8,6.8,0,0,1-7.019-6.861m4.5,0a2.541,2.541,0,1,0,5.047,0,2.511,2.511,0,0,0-2.523-2.76,2.554,2.554,0,0,0-2.524,2.76" transform="translate(-367.464 -21.981)" fill="#003681"/>
        <path id="Path_17190" data-name="Path 17190" d="M545.472,63.442a2.827,2.827,0,0,1,2.839,2.839,2.761,2.761,0,0,1-2.839,2.76,2.8,2.8,0,1,1,0-5.6" transform="translate(-415.821 -48.616)" fill="#003681"/>
        <path id="Path_17191" data-name="Path 17191" d="M0,2.025H5.363L9.227,15.037,13.249,2.025h5.126L11.751,21.74H6.7Z" transform="translate(0 -1.552)" fill="#003681"/>
        <path id="Path_17192" data-name="Path 17192" d="M84.521,20.11h-4.5V10.883H78.291V7.1h6.23ZM82.155,0a2.743,2.743,0,0,1,2.76,2.76,2.721,2.721,0,0,1-5.442,0A2.587,2.587,0,0,1,82.155,0" transform="translate(-59.995 0)" fill="#003681"/>
        <path id="Path_17193" data-name="Path 17193" d="M120.092,33.495a4.566,4.566,0,0,0-2.918-1.262c-.631,0-.867.315-.867.473,0,.315.158.473.71.631l1.972.552c2.918.946,3.785,2.287,3.785,4.1,0,2.05-1.735,4.416-5.6,4.416a8.782,8.782,0,0,1-6.151-2.05l2.445-3a6.327,6.327,0,0,0,3.785,1.577c.552,0,.867-.237.867-.552s-.237-.552-1.1-.788l-1.814-.473a4.262,4.262,0,0,1-3.549-4.1c0-2.366,2.287-4.337,5.363-4.337a8.6,8.6,0,0,1,5.678,1.972Z" transform="translate(-85.077 -21.981)" fill="#003681"/>
        <path id="Path_17194" data-name="Path 17194" d="M170.909,20.11h-4.5V10.883h-1.735V7.1h6.23ZM168.464,0a2.743,2.743,0,0,1,2.76,2.76,2.721,2.721,0,0,1-5.442,0A2.678,2.678,0,0,1,168.464,0" transform="translate(-126.194 0)" fill="#003681"/>
        <path id="Path_17195" data-name="Path 17195" d="M203.879,10.124v4.732h2.6V18.72h-2.6v4.574c0,.789.631.867,1.183.867a13.406,13.406,0,0,0,1.5-.079v3.864s-2.129.158-3.233.158c-2.129,0-3.943-.552-3.943-3.312V18.72h-1.972V14.856h1.972V10.124Z" transform="translate(-151.277 -7.758)" fill="#003681"/>
      </g>
    </g>
  </g>
</svg>
